<?xml version="1.0" encoding="UTF-8" standalone="no"?>
<svg width="20px" height="20px" viewBox="0 0 20 20" version="1.1" xmlns="http://www.w3.org/2000/svg" xmlns:xlink="http://www.w3.org/1999/xlink">
    <!-- Generator: sketchtool 39 (31667) - http://www.bohemiancoding.com/sketch -->
    <title>1B120E23-92B7-4C9C-9E3F-56186B581998</title>
    <desc>Created with sketchtool.</desc>
    <defs></defs>
    <g id="Page-1" stroke="none" stroke-width="1" fill="none" fill-rule="evenodd">
        <g id="매장관리_기본정보관리" transform="translate(-798.000000, -1391.000000)" fill="#909090">
            <path d="M808,1396 C805.2,1396 803,1398.2 803,1401 C803,1403.8 805.2,1406 808,1406 C810.8,1406 813,1403.8 813,1401 C813,1398.2 810.8,1396 808,1396 L808,1396 Z M808,1391 C802.5,1391 798,1395.5 798,1401 C798,1406.5 802.5,1411 808,1411 C813.5,1411 818,1406.5 818,1401 C818,1395.5 813.5,1391 808,1391 L808,1391 Z M808,1409 C803.6,1409 800,1405.4 800,1401 C800,1396.6 803.6,1393 808,1393 C812.4,1393 816,1396.6 816,1401 C816,1405.4 812.4,1409 808,1409 L808,1409 Z" id="Shape-Copy-5"></path>
        </g>
    </g>
</svg>