<?xml version="1.0" encoding="UTF-8" standalone="no"?>
<svg width="20px" height="20px" viewBox="0 0 20 20" version="1.1" xmlns="http://www.w3.org/2000/svg" xmlns:xlink="http://www.w3.org/1999/xlink">
    <!-- Generator: sketchtool 39 (31667) - http://www.bohemiancoding.com/sketch -->
    <title>014EE71F-9961-4938-AFBE-9FB404A5D2FB</title>
    <desc>Created with sketchtool.</desc>
    <defs></defs>
    <g id="Page-1" stroke="none" stroke-width="1" fill="none" fill-rule="evenodd">
        <g id="매장관리_기본정보관리" transform="translate(-798.000000, -1190.000000)" fill="#909090">
            <path d="M808,1195 C805.2,1195 803,1197.2 803,1200 C803,1202.8 805.2,1205 808,1205 C810.8,1205 813,1202.8 813,1200 C813,1197.2 810.8,1195 808,1195 L808,1195 Z M808,1190 C802.5,1190 798,1194.5 798,1200 C798,1205.5 802.5,1210 808,1210 C813.5,1210 818,1205.5 818,1200 C818,1194.5 813.5,1190 808,1190 L808,1190 Z M808,1208 C803.6,1208 800,1204.4 800,1200 C800,1195.6 803.6,1192 808,1192 C812.4,1192 816,1195.6 816,1200 C816,1204.4 812.4,1208 808,1208 L808,1208 Z" id="Shape"></path>
        </g>
    </g>
</svg>