<?xml version="1.0" encoding="UTF-8" standalone="no"?>
<svg width="20px" height="20px" viewBox="0 0 20 20" version="1.1" xmlns="http://www.w3.org/2000/svg" xmlns:xlink="http://www.w3.org/1999/xlink">
    <!-- Generator: sketchtool 39 (31667) - http://www.bohemiancoding.com/sketch -->
    <title>333A607D-F0FA-43A1-976B-DA0A53DF4A40</title>
    <desc>Created with sketchtool.</desc>
    <defs></defs>
    <g id="Page-1" stroke="none" stroke-width="1" fill="none" fill-rule="evenodd" fill-opacity="0.699999988">
        <g id="매장관리_기본정보관리" transform="translate(-901.000000, -1391.000000)" fill="#C0C0C0">
            <path d="M911,1391 C905.5,1391 901,1395.5 901,1401 C901,1406.5 905.5,1411 911,1411 C916.5,1411 921,1406.5 921,1401 C921,1395.5 916.5,1391 911,1391 L911,1391 Z M911,1409 C906.6,1409 903,1405.4 903,1401 C903,1396.6 906.6,1393 911,1393 C915.4,1393 919,1396.6 919,1401 C919,1405.4 915.4,1409 911,1409 L911,1409 Z" id="Shape-Copy-4"></path>
        </g>
    </g>
</svg>